<?xml version="1.0" encoding="UTF-8" standalone="no"?>
<!-- Generator: Adobe Illustrator 16.0.0, SVG Export Plug-In . SVG Version: 6.00 Build 0)  -->

<svg
   xmlns:dc="http://purl.org/dc/elements/1.1/"
   xmlns:cc="http://creativecommons.org/ns#"
   xmlns:rdf="http://www.w3.org/1999/02/22-rdf-syntax-ns#"
   xmlns:svg="http://www.w3.org/2000/svg"
   xmlns="http://www.w3.org/2000/svg"
   xmlns:sodipodi="http://sodipodi.sourceforge.net/DTD/sodipodi-0.dtd"
   xmlns:inkscape="http://www.inkscape.org/namespaces/inkscape"
   version="1.1"
   id="Layer_1"
   x="0px"
   y="0px"
   width="14"
   height="14"
   viewBox="0 0 14 14"
   enable-background="new 0 0 120 120"
   xml:space="preserve"
   inkscape:version="0.91 r13725"
   sodipodi:docname="denied.svg"><metadata
     id="metadata13"><rdf:RDF><cc:Work
         rdf:about=""><dc:format>image/svg+xml</dc:format><dc:type
           rdf:resource="http://purl.org/dc/dcmitype/StillImage" /><dc:title></dc:title></cc:Work></rdf:RDF></metadata><defs
     id="defs11" /><sodipodi:namedview
     pagecolor="#ffffff"
     bordercolor="#666666"
     borderopacity="1"
     objecttolerance="10"
     gridtolerance="10"
     guidetolerance="10"
     inkscape:pageopacity="0"
     inkscape:pageshadow="2"
     inkscape:window-width="1366"
     inkscape:window-height="744"
     id="namedview9"
     showgrid="false"
     inkscape:zoom="15.733333"
     inkscape:cx="5.8391151"
     inkscape:cy="7.2723852"
     inkscape:window-x="0"
     inkscape:window-y="24"
     inkscape:window-maximized="1"
     inkscape:current-layer="Layer_1" /><g
     id="g3"
     style="fill:#f20000;fill-opacity:0.69"
     transform="matrix(0.12121219,0,0,0.12121219,-0.27939435,-0.2665894)"><path
       d="m 60.005,23.299 c 9.799,0 19.014,3.817 25.946,10.75 6.933,6.931 10.75,16.148 10.75,25.951 0,9.803 -3.817,19.02 -10.75,25.952 C 79.02,92.884 69.803,96.701 60,96.701 50.197,96.701 40.98,92.884 34.048,85.951 27.116,79.02 23.299,69.804 23.299,60 c 0,-9.804 3.817,-19.02 10.75,-25.952 6.931,-6.931 16.148,-10.749 25.955,-10.75 l 0.001,0 M 60,3.299 C 45.491,3.3 30.977,8.836 19.906,19.906 c -22.144,22.144 -22.143,58.045 0,80.188 11.072,11.072 25.583,16.607 40.094,16.607 14.511,0 29.021,-5.535 40.094,-16.607 22.144,-22.144 22.144,-58.044 0,-80.188 C 89.021,8.833 74.513,3.297 60,3.299 l 0,0 z"
       id="path5"
       style="fill:#f20000;fill-opacity:0.69"
       inkscape:connector-curvature="0" /></g><path
     style="fill:#f20000;fill-opacity:0.69"
     d="M 4.87556,3.0914388 A 4.4546317,4.4546317 0 0 0 3.0656005,4.897593 l 6.030899,6.0309 A 4.4546317,4.4546317 0 0 0 10.906697,9.1223379 L 4.87556,3.0914388 Z"
     id="rect7"
     inkscape:connector-curvature="0" /></svg>
