<?xml version="1.0" encoding="UTF-8" standalone="no"?>
<!-- Generator: Adobe Illustrator 16.0.0, SVG Export Plug-In . SVG Version: 6.00 Build 0)  -->

<svg
   xmlns:dc="http://purl.org/dc/elements/1.1/"
   xmlns:cc="http://creativecommons.org/ns#"
   xmlns:rdf="http://www.w3.org/1999/02/22-rdf-syntax-ns#"
   xmlns:svg="http://www.w3.org/2000/svg"
   xmlns="http://www.w3.org/2000/svg"
   xmlns:sodipodi="http://sodipodi.sourceforge.net/DTD/sodipodi-0.dtd"
   xmlns:inkscape="http://www.inkscape.org/namespaces/inkscape"
   version="1.1"
   id="Layer_1"
   x="0px"
   y="0px"
   width="14"
   height="14"
   viewBox="0 0 14 14"
   enable-background="new 0 0 120 120"
   xml:space="preserve"
   inkscape:version="0.91 r13725"
   sodipodi:docname="gear.svg"><metadata
     id="metadata9"><rdf:RDF><cc:Work
         rdf:about=""><dc:format>image/svg+xml</dc:format><dc:type
           rdf:resource="http://purl.org/dc/dcmitype/StillImage" /><dc:title></dc:title></cc:Work></rdf:RDF></metadata><defs
     id="defs7" /><sodipodi:namedview
     pagecolor="#ffffff"
     bordercolor="#666666"
     borderopacity="1"
     objecttolerance="10"
     gridtolerance="10"
     guidetolerance="10"
     inkscape:pageopacity="0"
     inkscape:pageshadow="2"
     inkscape:window-width="1366"
     inkscape:window-height="744"
     id="namedview5"
     showgrid="false"
     inkscape:zoom="31.466667"
     inkscape:cx="4.6676502"
     inkscape:cy="6.8075566"
     inkscape:window-x="0"
     inkscape:window-y="24"
     inkscape:window-maximized="1"
     inkscape:current-layer="Layer_1" /><path
     d="m 13.403406,8.2370745 c 0.260056,0 0.502353,-0.2108914 0.537756,-0.4687129 0,0 0.04963,-0.3623852 0.04963,-0.7933424 0,-0.4309572 -0.04963,-0.7933425 -0.04963,-0.7933425 -0.03576,-0.2579391 -0.2777,-0.4688307 -0.537756,-0.4688307 l -1.344741,0 c -0.26041,0 -0.530699,-0.1659608 -0.600565,-0.3687365 -0.06987,-0.2027757 -0.166313,-0.8533284 0.01776,-1.0372849 l 0.950364,-0.9504819 c 0.183956,-0.1840742 0.198307,-0.4982354 0.03165,-0.698306 L 11.339658,1.5394769 C 11.139587,1.3726927 10.825544,1.386807 10.641234,1.5709988 L 9.69087,2.5214807 C 9.5069134,2.7056726 9.2000445,2.7797728 9.0095011,2.686383 8.8189578,2.5929932 8.2846132,2.199086 8.2846132,1.9387945 l 0,-1.34474182 c 0,-0.26029158 -0.2110092,-0.50235216 -0.4687131,-0.53775557 0,0 -0.3623851,-0.04987109 -0.7933424,-0.04987109 -0.4309573,0 -0.7933424,0.04987109 -0.7933424,0.04987109 C 5.9712761,0.09170087 5.7601495,0.3337611 5.7601495,0.59405268 l 0,1.34474182 c 0,0.2602915 -0.1658433,0.5305808 -0.3687368,0.6005644 C 5.1885194,2.6093421 4.5380846,2.7056726 4.3540103,2.5215979 L 3.4035284,1.5711165 C 3.2194543,1.3870422 2.9052931,1.3728103 2.7053401,1.5394769 L 1.5868978,2.6579192 C 1.4201136,2.8579896 1.434228,3.1720333 1.6184197,3.3562252 L 2.5687839,4.306707 C 2.7528583,4.4907811 2.8271938,4.7974148 2.7336863,4.9879581 2.640179,5.1785015 2.2463895,5.712846 1.9860979,5.712846 l -1.34450657,0 c -0.26029162,0 -0.50235224,0.2110092 -0.53787328,0.4688307 0,0 -0.04987059,0.3623853 -0.04987059,0.7932248 0,0.4310749 0.04987059,0.7932249 0.04987059,0.7932249 0.0354035,0.2580567 0.27746399,0.4689481 0.53787328,0.4689481 l 1.34474177,0 c 0.2602916,0 0.5305808,0.1657257 0.6004467,0.3687367 0.069983,0.2028934 0.1663137,0.8532112 -0.017878,1.0371674 L 1.6185373,10.59346 c -0.1840741,0.184075 -0.198306,0.498236 -0.031522,0.698424 l 1.1183246,1.118442 c 0.2000705,0.166666 0.5139965,0.152788 0.6981884,-0.03164 l 0.9504823,-0.950367 c 0.1840743,-0.183956 0.4907078,-0.258174 0.6813688,-0.164784 0.1906608,0.09339 0.7247704,0.487296 0.7247704,0.747471 l 0,1.344742 c 0,0.260173 0.211009,0.502234 0.4690658,0.537519 0,0 0.3622676,0.04987 0.7933424,0.04987 0.4310748,0 0.7933424,-0.04987 0.7933424,-0.04987 0.2579391,-0.03541 0.4687131,-0.277346 0.4687131,-0.537519 l 0,-1.344742 c 0,-0.260292 0.1659608,-0.530699 0.3688542,-0.600565 0.203011,-0.06998 0.853446,-0.166196 1.0374026,0.01776 l 0.950364,0.950481 c 0.184074,0.183839 0.498236,0.198305 0.698424,0.03152 l 1.118207,-1.118088 c 0.166667,-0.200071 0.152788,-0.513997 -0.03165,-0.698424 L 11.475861,9.643331 C 11.291787,9.4593748 11.217451,9.1526235 11.311076,8.9619626 11.404466,8.7714192 11.798373,8.2370745 12.058547,8.2370745 l 1.344859,0 z M 7.0224402,9.5257119 c -1.4087269,0 -2.5506929,-1.1417307 -2.5506929,-2.5508104 0,-1.4086091 1.141966,-2.5506929 2.5506929,-2.5506929 1.4087267,0 2.5508104,1.1419662 2.5508104,2.5506929 0,1.4087268 -1.1420837,2.5508104 -2.5508104,2.5508104 z"
     id="path3"
     style="fill:#798286;fill-opacity:0.68999999"
     inkscape:connector-curvature="0" /></svg>
