<?xml version="1.0" encoding="UTF-8" standalone="no"?>
<!-- Created with Inkscape (http://www.inkscape.org/) -->

<svg
   xmlns:dc="http://purl.org/dc/elements/1.1/"
   xmlns:cc="http://creativecommons.org/ns#"
   xmlns:rdf="http://www.w3.org/1999/02/22-rdf-syntax-ns#"
   xmlns:svg="http://www.w3.org/2000/svg"
   xmlns="http://www.w3.org/2000/svg"
   xmlns:sodipodi="http://sodipodi.sourceforge.net/DTD/sodipodi-0.dtd"
   xmlns:inkscape="http://www.inkscape.org/namespaces/inkscape"
   version="1.0"
   width="12pt"
   height="12pt"
   id="svg2"
   sodipodi:version="0.32"
   inkscape:version="0.91 r13725"
   sodipodi:docname="python-logo.svg">
  <metadata
     id="metadata2193">
    <rdf:RDF>
      <cc:Work
         rdf:about="">
        <dc:format>image/svg+xml</dc:format>
        <dc:type
           rdf:resource="http://purl.org/dc/dcmitype/StillImage" />
        <dc:title />
      </cc:Work>
    </rdf:RDF>
  </metadata>
  <sodipodi:namedview
     inkscape:window-height="744"
     inkscape:window-width="1366"
     inkscape:pageshadow="2"
     inkscape:pageopacity="0.0"
     borderopacity="1.0"
     bordercolor="#666666"
     pagecolor="#ffffff"
     id="base"
     inkscape:zoom="20.48"
     inkscape:cx="1.4665617"
     inkscape:cy="6.8311679"
     inkscape:window-x="0"
     inkscape:window-y="24"
     inkscape:current-layer="g4162"
     showgrid="false"
     inkscape:window-maximized="1" />
  <defs
     id="defs4" />
  <g
     id="g2303"
     transform="translate(0,-128.775)">
    <g
       id="g3425"
       transform="matrix(0.13115793,0,0,0.13115793,-31.714784,127.65441)"
       style="">
      <g
         id="g4162"
         transform="matrix(1.0066981,0,0,1.0066981,-4.2515353,-1.5701876)">
        <path
           inkscape:connector-curvature="0"
           id="path1948"
           style="fill:#798286;fill-opacity:0.69"
           d="m 300.59147,10.873382 c -4.58365,0.0213 -8.96094,0.412218 -12.8125,1.09375 -11.34622,2.004504 -13.40625,6.200103 -13.40625,13.9375 l 0,10.21875 26.8125,0 0,3.40625 -26.8125,0 -10.0625,0 c -7.79246,0 -14.61576,4.683717 -16.75,13.59375 -2.46182,10.212966 -2.57102,16.586023 0,27.25 1.90593,7.937852 6.45754,13.593748 14.25,13.59375 l 9.21875,0 0,-12.25 c 0,-8.849902 7.65714,-16.656248 16.75,-16.65625 l 26.78125,0 c 7.45495,0 13.40625,-6.138164 13.40625,-13.625 l 0,-25.53125 c 0,-7.266338 -6.12998,-12.724777 -13.40625,-13.9375 -4.60599,-0.766725 -9.3851,-1.115048 -13.96875,-1.09375 z m -14.5,8.218751 c 2.76955,0 5.03125,2.298645 5.03125,5.124999 0,2.816336 -2.2617,5.09375 -5.03125,5.09375 -2.77948,-1e-6 -5.03125,-2.277415 -5.03125,-5.09375 0,-2.826353 2.25177,-5.124999 5.03125,-5.124999 z" />
        <path
           inkscape:connector-curvature="0"
           id="path1950"
           style="fill:#798286;fill-opacity:0.69"
           d="m 331.31022,39.529632 0,11.90625 c 0,9.230755 -7.8259,16.999999 -16.75,17 l -26.78125,0 c -7.33583,0 -13.40625,6.278483 -13.40625,13.625 l 0,25.531248 c 0,7.26634 6.31859,11.54032 13.40625,13.625 8.48733,2.49561 16.62624,2.94663 26.78125,0 6.75015,-1.95439 13.40625,-5.88761 13.40625,-13.625 l 0,-10.218748 -26.78125,0 0,-3.40625 26.78125,0 13.40625,0 c 7.79246,0 10.69625,-5.435408 13.40624,-13.59375 2.79933,-8.398886 2.68022,-16.475776 0,-27.25 -1.92578,-7.757441 -5.60387,-13.59375 -13.40624,-13.59375 l -10.0625,0 z m -15.0625,64.656248 c 2.77948,1e-5 5.03125,2.27742 5.03125,5.09375 0,2.82635 -2.25178,5.125 -5.03125,5.125 -2.76955,0 -5.03125,-2.29865 -5.03125,-5.125 0,-2.81633 2.2617,-5.09375 5.03125,-5.09375 z" />
      </g>
    </g>
  </g>
</svg>
